# xmcd
#
# Track frame offsets:
# 150
# 27720
# 49805
# 76935
# 95212
# 110940
# 133702
# 150942
# 177300
# 195900
# 212362
# 237810
# 258172
# 287887
#
# Disc length: 4095 seconds
#
# Revision: 0
# Processed by: cddbd v1.5.2PL0 Copyright (c) Steve Scherf et al.
# Submitted via: Audion 3.0.2 (http://www.panic.com/audion/)
#
DISCID=c00ffd0e
DTITLE=The Big Mo' Band - The Big Mo' Band
DYEAR=1900
DGENRE=
TTITLE0=Hook in Mouth
TTITLE1=Keep the One You Got
TTITLE2=I Don't Need No Doctor
TTITLE3=Funky Miracle
TTITLE4=Easy
TTITLE5=Fryin' Time
TTITLE6=Get on the Right Track
TTITLE7=Vibrator
TTITLE8=Heaven Help Us All
TTITLE9=I Want a Little Girl
TTITLE10=Use Me
TTITLE11=Cried Last Night
TTITLE12=Express Yourself
TTITLE13=I Mean You
EXTD=
EXTT0=
EXTT1=
EXTT2=
EXTT3=
EXTT4=
EXTT5=
EXTT6=
EXTT7=
EXTT8=
EXTT9=
EXTT10=
EXTT11=
EXTT12=
EXTT13=
PLAYORDER=
